<svg width="15" height="12" viewBox="0 0 15 12" fill="none" xmlns="http://www.w3.org/2000/svg">
<path d="M7.5 9L7.5 4.5M7.5 4.5L9.5 6.5M7.5 4.5L5.5 6.5M4 11C2.34315 11 1 9.65685 1 8C1 6.67137 1.8637 5.54447 3.06027 5.15013C3.0207 4.93947 3 4.72215 3 4.5C3 2.567 4.567 1 6.5 1C8.12082 1 9.48431 2.10173 9.88245 3.59716C10.0769 3.53409 10.2845 3.5 10.5 3.5C11.6046 3.5 12.5 4.39543 12.5 5.5C12.5 5.73209 12.4605 5.95495 12.3878 6.16221C13.3302 6.5203 14 7.43193 14 8.5C14 9.88071 12.8807 11 11.5 11H4Z" stroke="white" stroke-width="1.5" stroke-linecap="round" stroke-linejoin="round"/>
</svg>
