<svg width="16" height="13" viewBox="0 0 16 13" fill="none" xmlns="http://www.w3.org/2000/svg">
<path d="M8.0008 1.62428C7.78444 1.62424 7.57252 1.68246 7.38969 1.79216C7.20685 1.90187 7.06063 2.05856 6.96803 2.24399C6.86848 2.43532 6.69357 2.58184 6.48108 2.65192C6.26858 2.722 6.03555 2.71001 5.8323 2.61854C5.62904 2.52708 5.47188 2.36347 5.39474 2.16305C5.3176 1.96263 5.32668 1.74149 5.42001 1.54736C5.61114 1.1654 5.8939 0.83117 6.24567 0.571428C6.59744 0.311685 7.00844 0.133642 7.44578 0.0515492C7.88312 -0.0305434 8.33466 -0.0144057 8.76424 0.0986704C9.19383 0.211747 9.58953 0.418621 9.91969 0.702735C10.2498 0.98685 10.5053 1.34031 10.6655 1.73484C10.8258 2.12936 10.8865 2.55398 10.8426 2.97472C10.7988 3.39546 10.6518 3.80062 10.4132 4.15779C10.1746 4.51496 9.85123 4.8142 9.46884 5.03158C9.28598 5.13085 9.1203 5.25618 8.97759 5.40319C8.8702 5.52236 8.85763 5.59387 8.85763 5.62637C8.85763 5.70221 8.90105 5.77371 8.97188 5.81055L14.8075 8.88524C15.2563 9.12116 15.6098 9.49183 15.8122 9.939C16.0147 10.3862 16.0547 10.8844 15.926 11.3555C15.7973 11.8266 15.5072 12.2438 15.1012 12.5415C14.6953 12.8391 14.1965 13.0004 13.6833 13H2.3137C1.80119 12.9998 1.30325 12.8383 0.897949 12.5409C0.49265 12.2434 0.202921 11.8268 0.0741976 11.3563C-0.0545262 10.8859 -0.0149643 10.3882 0.186679 9.94142C0.388323 9.49461 0.740643 9.12389 1.18839 8.88741L5.58567 6.56893C5.68419 6.51407 5.79329 6.47845 5.90655 6.46417C6.0198 6.44989 6.13492 6.45723 6.24514 6.48577C6.35536 6.5143 6.45845 6.56345 6.54834 6.63032C6.63823 6.69719 6.71311 6.78044 6.76858 6.87516C6.82404 6.96988 6.85897 7.07417 6.87131 7.18188C6.88365 7.2896 6.87315 7.39856 6.84043 7.50237C6.8077 7.60617 6.75342 7.70273 6.68076 7.78634C6.60811 7.86996 6.51855 7.93896 6.41737 7.98927L2.02123 10.3077C1.90436 10.3687 1.81224 10.4649 1.75946 10.5811C1.70668 10.6972 1.69624 10.8268 1.72979 10.9492C1.76334 11.0716 1.83898 11.18 1.94473 11.257C2.05048 11.3341 2.18031 11.3756 2.3137 11.3749H13.6833C13.8166 11.3751 13.9461 11.3333 14.0516 11.2561C14.1571 11.1788 14.2325 11.0706 14.266 10.9482C14.2995 10.8259 14.2892 10.6965 14.2366 10.5804C14.1841 10.4642 14.0923 10.368 13.9758 10.3067L8.13789 7.23089C7.83687 7.07144 7.58604 6.83887 7.41117 6.55708C7.23629 6.27529 7.14367 5.95442 7.14282 5.62745C7.14282 5.0955 7.38845 4.66539 7.66835 4.35229C7.94253 4.04352 8.28527 3.80842 8.58573 3.63724C8.80005 3.51557 8.96641 3.33065 9.05934 3.11078C9.15228 2.89092 9.16667 2.64823 9.10031 2.41986C9.03395 2.1915 8.8905 1.99006 8.69193 1.84637C8.49335 1.70268 8.25058 1.62467 8.0008 1.62428Z" fill="#A8A8AA"/>
</svg>
