<svg width="17" height="16" viewBox="0 0 17 16" fill="none" xmlns="http://www.w3.org/2000/svg">
<path fill-rule="evenodd" clip-rule="evenodd" d="M6.79012 14.9184C6.45842 15.6879 5.53535 16.132 4.67799 15.6934C3.05826 14.8629 1.94361 13.9138 1.26199 12.8593C0.572459 11.7913 0.359503 10.6695 0.455293 9.57389C0.642124 7.44988 1.99586 5.43037 3.11684 3.93414C4.60832 1.9455 6.50513 0.84668 8.5001 0.84668C10.4951 0.84668 12.3919 1.9455 13.8834 3.93414C14.9925 5.41295 16.4483 7.44434 16.6858 9.57469C16.8085 10.6806 16.6067 11.8167 15.8878 12.8949C15.1801 13.9573 14.0092 14.9057 12.2953 15.733C11.4379 16.147 10.5236 15.6958 10.203 14.9231C9.63138 15.2825 9.03289 15.4923 8.50089 15.4923C7.96573 15.4923 7.36328 15.2801 6.78933 14.9184H6.79012ZM4.38349 4.88412C5.66281 3.1789 7.13054 2.42999 8.5001 2.42999C9.86967 2.42999 11.3374 3.1789 12.6167 4.88412C13.7678 6.41835 14.9299 8.11566 15.112 9.75043C15.1983 10.5263 15.0606 11.2807 14.5705 12.0169C14.0749 12.7595 13.1843 13.5369 11.6667 14.2787V13.5654C12.3523 12.655 12.8542 11.4343 12.8542 9.95072C12.8542 9.64725 12.8381 9.35355 12.8059 9.06961C12.7841 8.87768 12.6929 8.70035 12.5494 8.57101C12.4059 8.44168 12.2201 8.36927 12.0269 8.36741C11.1599 8.35883 10.3257 8.03432 9.68085 7.45472C9.03595 6.87512 8.62458 6.08021 8.52385 5.219C8.50942 5.10547 8.47079 4.99636 8.41057 4.89905C8.35035 4.80173 8.26995 4.71848 8.17478 4.65491C8.07962 4.59135 7.97192 4.54895 7.85897 4.53058C7.74601 4.51222 7.63043 4.51832 7.52003 4.54846C5.62481 5.08996 4.14599 7.10472 4.14599 9.95072C4.14599 11.4343 4.6479 12.655 5.33348 13.5654V14.2494C3.91879 13.5148 3.07251 12.7421 2.59197 11.9987C2.11144 11.2562 1.96419 10.493 2.03306 9.71323C2.17556 8.08637 3.25142 6.39144 4.38349 4.88412ZM5.72931 9.95072C5.72931 8.19166 6.40221 7.04218 7.18833 6.45794C7.49099 7.34806 8.03138 8.13843 8.751 8.74348C9.47061 9.34853 10.342 9.74521 11.2709 9.89056C11.2804 11.0052 10.9004 12.0985 10.1436 12.9242C9.48492 13.6422 8.78985 13.909 8.5001 13.909C8.21035 13.909 7.51607 13.6422 6.85741 12.9242C6.23438 12.2442 5.72931 11.2435 5.72931 9.95072Z" fill="#A8A8AA"/>
</svg>
