<svg width="18" height="18" viewBox="0 0 18 18" fill="none" xmlns="http://www.w3.org/2000/svg">
<path d="M10.6875 3.00587C10.6875 3.15505 10.7467 3.29813 10.8522 3.40361C10.9577 3.5091 11.1008 3.56837 11.25 3.56837C11.3991 3.56837 11.5422 3.5091 11.6477 3.40361C11.7532 3.29813 11.8125 3.15505 11.8125 3.00587V0.948242C11.8125 0.799058 11.7532 0.655984 11.6477 0.550495C11.5422 0.445005 11.3991 0.385742 11.25 0.385742C11.1008 0.385742 10.9577 0.445005 10.8522 0.550495C10.7467 0.655984 10.6875 0.799058 10.6875 0.948242V3.00587ZM15.75 3.04524C15.8524 2.93915 15.9091 2.79706 15.9078 2.64958C15.9066 2.50209 15.8474 2.36101 15.7431 2.25672C15.6388 2.15243 15.4977 2.09327 15.3502 2.09199C15.2028 2.09071 15.0607 2.1474 14.9546 2.24987L13.5 3.70449C13.4462 3.75638 13.4034 3.81845 13.3739 3.88708C13.3444 3.9557 13.3289 4.02952 13.3283 4.1042C13.3276 4.17889 13.3418 4.25296 13.3701 4.32209C13.3984 4.39122 13.4402 4.45402 13.493 4.50684C13.5458 4.55965 13.6086 4.60142 13.6777 4.6297C13.7469 4.65799 13.8209 4.67222 13.8956 4.67157C13.9703 4.67092 14.0441 4.6554 14.1127 4.62592C14.1814 4.59644 14.2434 4.55359 14.2953 4.49987L15.75 3.04524ZM8.20458 4.49987C8.25647 4.55359 8.31854 4.59644 8.38716 4.62592C8.45579 4.6554 8.5296 4.67092 8.60429 4.67157C8.67898 4.67222 8.75305 4.65799 8.82218 4.6297C8.89131 4.60142 8.95411 4.55965 9.00693 4.50684C9.05974 4.45402 9.10151 4.39122 9.12979 4.32209C9.15807 4.25296 9.17231 4.17889 9.17166 4.1042C9.17101 4.02952 9.15549 3.9557 9.12601 3.88708C9.09653 3.81845 9.05368 3.75638 8.99995 3.70449L7.54533 2.24987C7.43924 2.1474 7.29715 2.09071 7.14967 2.09199C7.00218 2.09327 6.8611 2.15243 6.75681 2.25672C6.65251 2.36101 6.59336 2.50209 6.59208 2.64958C6.59079 2.79706 6.64749 2.93915 6.74995 3.04524L8.20458 4.49987ZM7.50595 7.31237C7.65514 7.31237 7.79821 7.2531 7.9037 7.14761C8.00919 7.04212 8.06845 6.89905 8.06845 6.74987C8.06845 6.60068 8.00919 6.45761 7.9037 6.35212C7.79821 6.24663 7.65514 6.18737 7.50595 6.18737H5.44833C5.29914 6.18737 5.15607 6.24663 5.05058 6.35212C4.94509 6.45761 4.88583 6.60068 4.88583 6.74987C4.88583 6.89905 4.94509 7.04212 5.05058 7.14761C5.15607 7.2531 5.29914 7.31237 5.44833 7.31237H7.50595ZM17.0516 7.31237C17.2008 7.31237 17.3438 7.2531 17.4493 7.14761C17.5548 7.04212 17.6141 6.89905 17.6141 6.74987C17.6141 6.60068 17.5548 6.45761 17.4493 6.35212C17.3438 6.24663 17.2008 6.18737 17.0516 6.18737H14.994C14.8448 6.18737 14.7017 6.24663 14.5962 6.35212C14.4907 6.45761 14.4315 6.60068 14.4315 6.74987C14.4315 6.89905 14.4907 7.04212 14.5962 7.14761C14.7017 7.2531 14.8448 7.31237 14.994 7.31237H17.0516ZM14.9546 11.2499C15.0065 11.3036 15.0685 11.3464 15.1372 11.3759C15.2058 11.4054 15.2796 11.4209 15.3543 11.4216C15.429 11.4222 15.503 11.408 15.5722 11.3797C15.6413 11.3514 15.7041 11.3097 15.7569 11.2568C15.8097 11.204 15.8515 11.1412 15.8798 11.0721C15.9081 11.003 15.9223 10.9289 15.9217 10.8542C15.921 10.7795 15.9055 10.7057 15.876 10.6371C15.8465 10.5684 15.8037 10.5064 15.75 10.4545L14.2953 8.99987C14.2434 8.94614 14.1814 8.90329 14.1127 8.87381C14.0441 8.84433 13.9703 8.82881 13.8956 8.82816C13.8209 8.82751 13.7469 8.84175 13.6777 8.87003C13.6086 8.89831 13.5458 8.94008 13.493 8.99289C13.4402 9.04571 13.3984 9.10851 13.3701 9.17764C13.3418 9.24677 13.3276 9.32084 13.3283 9.39553C13.3289 9.47022 13.3444 9.54403 13.3739 9.61266C13.4034 9.68128 13.4462 9.74335 13.5 9.79524L14.9546 11.2499ZM10.6875 12.5515C10.6875 12.7007 10.7467 12.8437 10.8522 12.9492C10.9577 13.0547 11.1008 13.114 11.25 13.114C11.3991 13.114 11.5422 13.0547 11.6477 12.9492C11.7532 12.8437 11.8125 12.7007 11.8125 12.5515V10.4939C11.8125 10.3447 11.7532 10.2016 11.6477 10.0961C11.5422 9.99063 11.3991 9.93137 11.25 9.93137C11.1008 9.93137 10.9577 9.99063 10.8522 10.0961C10.7467 10.2016 10.6875 10.3447 10.6875 10.4939V12.5515ZM12.7732 6.81737C12.8783 6.71193 12.9373 6.56912 12.9373 6.42024C12.9373 6.27136 12.8783 6.12855 12.7732 6.02312L11.9767 5.22662C11.8712 5.12116 11.7282 5.06192 11.579 5.06192C11.4299 5.06192 11.2868 5.12116 11.1813 5.22662L9.7267 6.68237C9.62125 6.78785 9.56201 6.9309 9.56201 7.08005C9.56201 7.22921 9.62125 7.37226 9.7267 7.47774L10.5232 8.27424C10.6287 8.37969 10.7717 8.43893 10.9209 8.43893C11.07 8.43893 11.2131 8.37969 11.3186 8.27424L12.7732 6.81962V6.81737ZM9.3982 10.1924C9.50331 10.0869 9.56234 9.94412 9.56234 9.79524C9.56234 9.64636 9.50331 9.50355 9.3982 9.39812L8.6017 8.60162C8.49622 8.49616 8.35317 8.43692 8.20402 8.43692C8.05486 8.43692 7.91181 8.49616 7.80633 8.60162L0.726704 15.6824C0.621252 15.7878 0.562012 15.9309 0.562012 16.0801C0.562012 16.2292 0.621252 16.3723 0.726704 16.4777L1.5232 17.2742C1.62869 17.3797 1.77174 17.4389 1.92089 17.4389C2.07005 17.4389 2.21309 17.3797 2.31858 17.2742L9.3982 10.1924Z" fill="#A8A8AA"/>
</svg>
