<svg width="16" height="16" viewBox="0 0 16 16" fill="none" xmlns="http://www.w3.org/2000/svg">
<path d="M0 5.91111V4.02222L4.02222 0H5.91111L0 5.91111ZM0 1.55556V0H1.55556L0 1.55556ZM11.7111 3.04444C11.563 2.88148 11.4039 2.72237 11.2338 2.56711C11.0637 2.41185 10.8895 2.27467 10.7111 2.15556L12.8667 0H14.7556L11.7111 3.04444ZM2.22222 10.6444L3.93333 8.93333C4.03704 9.0963 4.14459 9.24444 4.256 9.37778C4.36741 9.51111 4.48948 9.63704 4.62222 9.75556C4.20741 9.85926 3.78904 9.98904 3.36711 10.1449C2.94519 10.3007 2.56356 10.4673 2.22222 10.6444ZM12.8889 6.26667V6.22222C12.8889 5.94074 12.8667 5.66667 12.8222 5.4C12.7778 5.13333 12.7111 4.87407 12.6222 4.62222L16 1.24444V3.15556L12.8889 6.26667ZM7.02222 1.42222L8.46667 0H10.3556L8.93333 1.42222C8.77037 1.39259 8.61481 1.37037 8.46667 1.35556C8.31852 1.34074 8.16296 1.33333 8 1.33333C7.83704 1.33333 7.67407 1.34074 7.51111 1.35556C7.34815 1.37037 7.18518 1.39259 7.02222 1.42222ZM0 10.3333V8.44444L3.2 5.24444C3.17037 5.40741 3.14815 5.57037 3.13333 5.73333C3.11852 5.8963 3.11111 6.05926 3.11111 6.22222C3.11111 6.38519 3.11852 6.54074 3.13333 6.68889C3.14815 6.83704 3.17037 6.98518 3.2 7.13333L0 10.3333ZM15.7556 12.1778C15.637 12 15.5001 11.8296 15.3449 11.6667C15.1896 11.5037 15.0228 11.3556 14.8444 11.2222L16 10.0667V11.9556L15.7556 12.1778ZM13.1778 10.3556C13.0741 10.3111 12.9704 10.2702 12.8667 10.2329C12.763 10.1956 12.6593 10.1624 12.5556 10.1333C12.4222 10.0889 12.2927 10.0444 12.1671 10C12.0415 9.95556 11.9117 9.91852 11.7778 9.88889L16 5.64444V7.55556L13.1778 10.3556ZM8 9.77778C7.02222 9.77778 6.18519 9.42963 5.48889 8.73333C4.79259 8.03704 4.44444 7.2 4.44444 6.22222C4.44444 5.24444 4.79259 4.40741 5.48889 3.71111C6.18519 3.01482 7.02222 2.66667 8 2.66667C8.97778 2.66667 9.81481 3.01482 10.5111 3.71111C11.2074 4.40741 11.5556 5.24444 11.5556 6.22222C11.5556 7.2 11.2074 8.03704 10.5111 8.73333C9.81481 9.42963 8.97778 9.77778 8 9.77778ZM0.888889 16V14.4222C0.888889 13.9185 1.01481 13.4519 1.26667 13.0222C1.51852 12.5926 1.86667 12.2667 2.31111 12.0444C3.06667 11.6593 3.92237 11.3333 4.87822 11.0667C5.83407 10.8 6.87467 10.6667 8 10.6667C9.12533 10.6667 10.1662 10.8 11.1227 11.0667C12.0791 11.3333 12.9345 11.6593 13.6889 12.0444C14.1333 12.2667 14.4815 12.5926 14.7333 13.0222C14.9852 13.4519 15.1111 13.9185 15.1111 14.4222V16H0.888889Z" fill="#A8A8AA"/>
</svg>
