<svg width="12" height="11" viewBox="0 0 12 11" fill="none" xmlns="http://www.w3.org/2000/svg">
<path d="M5.99996 3.74939C5.87292 3.51215 5.72973 3.28407 5.57139 3.06679V1.36406C5.57139 1.24948 5.61654 1.13959 5.69692 1.05857C5.77729 0.977546 5.8863 0.932029 5.99996 0.932029C6.11362 0.932029 6.22263 0.977546 6.303 1.05857C6.38337 1.13959 6.42853 1.24948 6.42853 1.36406V3.06679C6.27019 3.28407 6.12699 3.51215 5.99996 3.74939ZM11.6088 1.06596C11.4106 0.80782 11.0271 0.5 10.3392 0.5C9.43654 0.5 8.27887 1.10916 7.24227 2.12875C6.94588 2.41832 6.67371 2.73207 6.42853 3.06679V8.0605C6.42853 8.17508 6.38337 8.28497 6.303 8.36599C6.22263 8.44701 6.11362 8.49253 5.99996 8.49253C5.8863 8.49253 5.77729 8.44701 5.69692 8.36599C5.61654 8.28497 5.57139 8.17508 5.57139 8.0605V3.06679C5.32689 2.73215 5.05544 2.41841 4.75979 2.12875C3.72266 1.10916 2.56499 0.5 1.66071 0.5C0.972856 0.5 0.589288 0.80782 0.391075 1.06596C0.0257207 1.53957 -0.26142 2.36636 0.379825 4.91101C0.70393 6.19792 1.425 6.69313 2.0207 6.87782C1.69584 7.40959 1.59171 8.04891 1.73085 8.65748C1.86998 9.26604 2.24119 9.79493 2.76416 10.1297C3.28714 10.4645 3.91985 10.5783 4.5254 10.4464C5.13095 10.3146 5.66067 9.94771 5.99996 9.42517C6.33925 9.94771 6.86896 10.3146 7.47452 10.4464C8.08007 10.5783 8.71277 10.4645 9.23575 10.1297C9.75873 9.79493 10.1299 9.26604 10.2691 8.65748C10.4082 8.04891 10.3041 7.40959 9.97921 6.87782C10.5749 6.69421 11.2955 6.19792 11.6201 4.91101C11.9801 3.48316 12.2597 1.90949 11.6088 1.06596Z" fill="black"/>
</svg>
