<svg width="50" height="41" viewBox="0 0 50 41" fill="none" xmlns="http://www.w3.org/2000/svg">
<path d="M24.9998 13.3225C24.4705 12.3498 23.8739 11.4147 23.2141 10.5238V3.54263C23.2141 3.07285 23.4023 2.62231 23.7371 2.29012C24.072 1.95794 24.5262 1.77132 24.9998 1.77132C25.4734 1.77132 25.9276 1.95794 26.2625 2.29012C26.5974 2.62231 26.7855 3.07285 26.7855 3.54263V10.5238C26.1258 11.4147 25.5291 12.3498 24.9998 13.3225ZM48.3702 2.32043C47.5443 1.26206 45.9461 0 43.08 0C39.3189 0 34.4953 2.49756 30.1761 6.67787C28.9412 7.86513 27.8071 9.15148 26.7855 10.5238V30.998C26.7855 31.4678 26.5974 31.9184 26.2625 32.2506C25.9276 32.5827 25.4734 32.7694 24.9998 32.7694C24.5262 32.7694 24.072 32.5827 23.7371 32.2506C23.4023 31.9184 23.2141 31.4678 23.2141 30.998V10.5238C22.1954 9.15183 21.0643 7.86548 19.8325 6.67787C15.5111 2.49756 10.6874 0 6.91962 0C4.05357 0 2.45537 1.26206 1.62948 2.32043C0.10717 4.26223 -1.08925 7.65209 1.5826 18.0851C2.93304 23.3615 5.93748 25.3918 8.4196 26.1491C7.06601 28.3293 6.63214 30.9505 7.21186 33.4457C7.79158 35.9408 9.33827 38.1092 11.5174 39.4818C13.6964 40.8545 16.3327 41.321 18.8558 40.7804C21.379 40.2398 23.5861 38.7356 24.9998 36.5932C26.4135 38.7356 28.6207 40.2398 31.1438 40.7804C33.667 41.321 36.3032 40.8545 38.4823 39.4818C40.6614 38.1092 42.2081 35.9408 42.7878 33.4457C43.3675 30.9505 42.9337 28.3293 41.5801 26.1491C44.0622 25.3963 47.0644 23.3615 48.4171 18.0851C49.917 12.2309 51.0822 5.77892 48.3702 2.32043Z" fill="url(#paint0_linear_586_2684)"/>
<defs>
<linearGradient id="paint0_linear_586_2684" x1="0" y1="20.5" x2="7.5" y2="20.5" gradientUnits="userSpaceOnUse">
<stop stop-color="#FFCC00"/>
<stop offset="1" stop-color="#E8FA07"/>
</linearGradient>
</defs>
</svg>
